# xmcd
#
# Track frame offsets: 
#        150
#        13985
#        22560
#        33295
#        43790
#        54530
#        69810
#        84420
#        96402
#        107472
#        117955
#        122652
#        133720
#        142112
#        156600
#        165027
#
# Disc length: 2363 seconds
#
# Revision: 0
# Processed by: cddbd v1.4PL0 Copyright (c) Steve Scherf et al.
# Submitted via: ExactAudioCopy v0.90a11
#
DISCID=ca093910
DTITLE=Fats Domino - His Greatest Hits Live
DYEAR=1900
DGENRE=
TTITLE0=Blueberry Hill
TTITLE1=I'm Ready
TTITLE2=Ain't That a Shame
TTITLE3=My Girl Josephine
TTITLE4=Blue Monday
TTITLE5=Jambalaya
TTITLE6=I'm in the Mood For Love
TTITLE7=Let the Four Winds Blow
TTITLE8=I Want to Walk You Home
TTITLE9=I'm Gonna Be a Wheel Someday
TTITLE10=Whole Lotta Lovin'
TTITLE11=The Fat Man
TTITLE12=Red Sails in the Sunset
TTITLE13=I'm in Love Again
TTITLE14=Be My Guest
TTITLE15=Going Home
EXTD=
EXTT0=
EXTT1=
EXTT2=
EXTT3=
EXTT4=
EXTT5=
EXTT6=
EXTT7=
EXTT8=
EXTT9=
EXTT10=
EXTT11=
EXTT12=
EXTT13=
EXTT14=
EXTT15=
PLAYORDER=
